<svg width="37" height="37" viewBox="0 0 37 37" fill="none" xmlns="http://www.w3.org/2000/svg">
<path d="M20.8846 12.9351C21.0827 12.5899 21.2773 12.2429 21.4686 11.8939C22.52 9.97318 23.5825 8.06118 24.656 6.15794C24.6618 6.14805 24.6654 6.13708 24.6667 6.12573C24.668 6.11439 24.667 6.10292 24.6637 6.09205C24.6603 6.08119 24.6548 6.07118 24.6474 6.06265C24.6399 6.05412 24.6308 6.04726 24.6206 6.04251C20.7749 4.19451 16.1292 4.32023 12.4114 6.30194C7.5303 8.90423 4.69601 14.0357 5.15087 19.5728C5.44001 23.0985 7.11772 26.3454 9.76344 28.6791C13.2343 31.7385 18.0103 32.7945 22.4732 31.5659C25.4297 30.7511 28.0274 28.8985 29.8194 26.4448C31.2922 24.4296 32.1432 22.1945 32.3726 19.7397C32.6682 16.5808 31.9653 13.6642 30.264 10.9899C30.2488 10.9657 30.2404 10.9379 30.2398 10.9093C30.2392 10.8807 30.2464 10.8525 30.2606 10.8277L32.3829 7.14194C32.3901 7.12949 32.4003 7.11895 32.4124 7.11122C32.4246 7.10349 32.4384 7.0988 32.4526 7.09757C32.4669 7.09633 32.4812 7.09858 32.4943 7.10412C32.5075 7.10966 32.519 7.11832 32.528 7.12937C34.6434 9.72366 36.0617 12.9339 36.4263 16.2734C36.8385 20.041 36.1897 23.5271 34.48 26.7317C31.1577 32.9579 24.496 36.6768 17.4114 36.1317C9.48001 35.5225 2.99658 29.7534 1.35544 21.9968C-0.0365625 15.4231 2.49715 8.63451 7.72572 4.47451C11.8194 1.21623 17.1337 -0.0660568 22.2914 0.9728C25.3848 1.59604 28.1345 2.96213 30.5406 5.07109C30.5772 5.10385 30.5832 5.14156 30.5589 5.18423C27.5699 10.3705 24.4743 15.7484 21.272 21.3179C21.1966 21.449 21.1589 21.5911 21.1589 21.7442C21.1612 23.6909 21.1619 25.6269 21.1612 27.5522C21.1612 27.562 21.1592 27.5716 21.1555 27.5807C21.1518 27.5897 21.1463 27.5979 21.1394 27.6048C21.1325 27.6117 21.1243 27.6171 21.1153 27.6209C21.1063 27.6246 21.0966 27.6265 21.0869 27.6265H16.5509C16.541 27.6265 16.5312 27.6246 16.522 27.6208C16.5128 27.617 16.5045 27.6114 16.4975 27.6044C16.4905 27.5974 16.485 27.5891 16.4812 27.5799C16.4774 27.5708 16.4754 27.561 16.4754 27.5511L16.4789 21.3225C16.4796 21.2448 16.4602 21.172 16.4206 21.1042L10.8606 11.6848C10.8575 11.6798 10.8559 11.674 10.8558 11.6681C10.8557 11.6622 10.8572 11.6564 10.8601 11.6513C10.863 11.6462 10.8673 11.6419 10.8724 11.639C10.8775 11.636 10.8833 11.6345 10.8892 11.6345L16.1212 11.6277C16.1475 11.6277 16.1733 11.6348 16.196 11.6483C16.2187 11.6617 16.2375 11.6811 16.2503 11.7042L18.848 16.4448C18.8517 16.4515 18.8569 16.4572 18.8634 16.4613C18.8698 16.4655 18.8771 16.4679 18.8847 16.4685C18.8924 16.4691 18.9 16.4677 18.9069 16.4646C18.9139 16.4614 18.92 16.4566 18.9246 16.4505C18.9772 16.3781 19.0274 16.2966 19.0754 16.2059C19.7132 15.0136 20.3162 13.9233 20.8846 12.9351Z" fill="#43D9AD"/>
</svg>
