<svg width="11" height="13" viewBox="0 0 11 13" fill="none" xmlns="http://www.w3.org/2000/svg">
<path fill-rule="evenodd" clip-rule="evenodd" d="M0.702899 7.96655C0.540359 8.35699 0.449555 8.77355 0.434845 9.19622C0.457275 9.4569 0.546177 9.70747 0.693058 9.92399C0.969438 10.244 1.30181 10.5109 1.67389 10.7118L4.077 12.3116C4.37271 12.547 4.70521 12.7319 5.06112 12.859C5.2922 12.914 5.53297 12.914 5.76405 12.859C6.12234 12.7335 6.45751 12.5498 6.75613 12.3154L9.18502 10.7146C9.5609 10.5132 9.89705 10.2451 10.1771 9.92352C10.325 9.70583 10.4138 9.45343 10.4348 9.19106C10.4189 8.76496 10.3257 8.34529 10.1598 7.95249L8.03548 1.26708C7.98807 1.05056 7.90237 0.844252 7.78242 0.657862C7.69507 0.551716 7.5822 0.469482 7.45439 0.418863C7.24083 0.360963 7.01866 0.341603 6.79831 0.361691H4.03248C3.81205 0.341654 3.58981 0.361497 3.37641 0.420269C3.24829 0.470786 3.13532 0.553413 3.04837 0.660206C2.92895 0.846605 2.84403 1.05296 2.79765 1.26942L0.702899 7.96655ZM6.9075 1.78069C7.0063 1.93777 7.07629 2.11123 7.11416 2.2929L8.93806 8.2838C8.253 7.92847 7.51768 7.67989 6.75754 7.54666L5.57239 3.53522C5.5651 3.51153 5.55225 3.48993 5.53489 3.47223C5.51754 3.45452 5.4962 3.44124 5.47266 3.43348C5.44911 3.42573 5.42405 3.42373 5.39958 3.42765C5.3751 3.43157 5.35192 3.4413 5.33198 3.45603C5.30522 3.4756 5.28563 3.50343 5.27622 3.53522L4.10465 7.54525C3.34093 7.6782 2.60218 7.92777 1.9143 8.28521L3.74568 2.2943C3.78318 2.1123 3.85336 1.9386 3.95282 1.78163C4.02535 1.69261 4.11915 1.6233 4.22556 1.58012C4.40482 1.53166 4.59132 1.51579 4.77619 1.53325H6.08506C6.27009 1.51577 6.45675 1.53165 6.63617 1.58012C6.74288 1.62343 6.83688 1.69308 6.90937 1.78256L6.9075 1.78069ZM5.49553 9.00361C6.05952 9.03627 6.61881 8.88444 7.08886 8.57107C7.14229 8.73928 7.16123 8.91653 7.14457 9.09223C7.1279 9.26793 7.07596 9.43846 6.99185 9.59361C6.81895 9.88749 6.56802 10.1277 6.26689 10.2876C5.95104 10.4882 5.67923 10.6625 5.67923 11.1251C5.67884 11.2734 5.71234 11.4199 5.77718 11.5534C5.56418 11.4649 5.38217 11.3154 5.25414 11.1235C5.12611 10.9317 5.0578 10.7062 5.05784 10.4756V10.447C5.05784 10.1269 5.05784 9.73279 4.60702 9.73279C4.54417 9.73275 4.48192 9.74501 4.42379 9.76888C4.30679 9.81733 4.21376 9.91018 4.1651 10.0271C4.14094 10.0852 4.12836 10.1474 4.12808 10.2103C3.81909 9.87287 3.6531 9.42867 3.66508 8.97128C3.66289 8.77332 3.69054 8.57616 3.74709 8.38643C3.93454 8.74118 4.64685 9.00502 5.49553 9.00502V9.00361Z" fill="#FF5D01"/>
</svg>
