<svg width="11" height="11" viewBox="0 0 11 11" fill="none" xmlns="http://www.w3.org/2000/svg">
<g clip-path="url(#clip0_57_166)">
<path d="M0.350861 0.750732H10.3509V10.7507H0.350861V0.750732Z" fill="#F7DF1E"/>
<path d="M2.98023 9.10756L3.7455 8.64443C3.89313 8.90619 4.02743 9.12767 4.34957 9.12767C4.65837 9.12767 4.85305 9.00688 4.85305 8.53704V5.3418H5.7928V8.55032C5.7928 9.52365 5.22226 9.96669 4.38986 9.96669C3.6381 9.96669 3.20172 9.57734 2.98021 9.10748" fill="black"/>
<path d="M6.30324 9.00688L7.06841 8.56385C7.26984 8.8928 7.53164 9.13444 7.99478 9.13444C8.38416 9.13444 8.63246 8.93975 8.63246 8.67124C8.63246 8.34904 8.3774 8.23491 7.94778 8.04702L7.7129 7.94626C7.03489 7.65767 6.58513 7.2952 6.58513 6.52994C6.58513 5.82512 7.12213 5.28809 7.96124 5.28809C8.55867 5.28809 8.98827 5.4962 9.29702 6.03993L8.56533 6.50978C8.40422 6.22117 8.22975 6.10707 7.96125 6.10707C7.68603 6.10707 7.51149 6.28159 7.51149 6.50978C7.51149 6.79172 7.68603 6.90586 8.08875 7.0804L8.32367 7.18109C9.12248 7.52345 9.57224 7.87247 9.57224 8.65782C9.57224 9.50366 8.9077 9.96678 8.01494 9.96678C7.1423 9.96678 6.57841 9.55063 6.30324 9.00688Z" fill="black"/>
</g>
<defs>
<clipPath id="clip0_57_166">
<rect width="10" height="10" fill="white" transform="translate(0.350861 0.750732)"/>
</clipPath>
</defs>
</svg>
