<svg width="11" height="11" viewBox="0 0 11 11" fill="none" xmlns="http://www.w3.org/2000/svg">
<g clip-path="url(#clip0_57_158)">
<path d="M9.35086 0.750732H2.35086C1.52243 0.750732 0.850861 1.42231 0.850861 2.25073V9.25073C0.850861 10.0792 1.52243 10.7507 2.35086 10.7507H9.35086C10.1793 10.7507 10.8509 10.0792 10.8509 9.25073V2.25073C10.8509 1.42231 10.1793 0.750732 9.35086 0.750732Z" fill="#CC6699"/>
<path d="M5.88992 2.46937C4.01492 3.1139 2.80399 4.4225 2.92117 5.20375C3.03836 5.985 4.21024 6.61 4.73758 7.02015C4.05399 7.37172 3.19461 7.89906 3.21414 8.58265C3.2532 9.52015 4.26883 9.22718 4.69852 8.95375C5.1282 8.68031 5.55789 7.91859 5.28445 7.11781C5.88992 6.96156 6.41727 7.15687 6.57352 7.27406C7.17899 7.70375 6.86649 8.19203 6.65164 8.27015C6.4368 8.34828 6.57352 8.38734 6.71024 8.34828C6.84695 8.30922 7.13992 8.1139 7.13992 7.78187C7.13992 6.94203 6.24149 6.5514 5.1282 6.84437C4.48367 6.16078 3.60477 5.84828 3.64383 5.10609C3.66336 4.83265 3.76102 4.12953 5.4993 3.25062C7.23758 2.37172 8.46805 2.72328 8.3118 3.52406C8.07742 4.735 5.96805 5.55531 5.22586 4.85218C5.1868 4.77406 5.05008 4.71547 5.1282 4.93031C5.51883 5.90687 8.68289 5.45765 8.81961 3.38734C8.85867 2.29359 7.27664 2.00062 5.88992 2.46937ZM4.21024 8.71937C3.72195 8.87562 3.74149 8.56312 3.76102 8.44593C3.81961 8.1139 4.09305 7.70375 4.91336 7.29359C5.14774 8.03578 4.62039 8.60218 4.21024 8.71937Z" fill="white"/>
</g>
<defs>
<clipPath id="clip0_57_158">
<rect width="10" height="10" fill="white" transform="translate(0.850861 0.750732)"/>
</clipPath>
</defs>
</svg>
