<svg width="19" height="11" viewBox="0 0 19 11" fill="none" xmlns="http://www.w3.org/2000/svg">
<path d="M12.3326 0.736816L12.2776 1.10122C12.1927 1.79182 12.2234 1.9894 12.4564 2.24569L12.6812 2.48242L12.4483 3.80396C12.3091 4.59242 12.1385 5.25319 12.0301 5.47034C11.937 5.65767 11.8286 5.93354 11.8052 6.08172C11.7664 6.2588 11.6345 6.43681 11.4331 6.59431C11.2551 6.72293 10.9057 7.06776 10.6581 7.34456C10.4603 7.57103 10.3241 7.70989 10.2501 7.76954L10.0084 8.01279C9.93076 8.17122 9.88681 8.2989 9.86997 8.39583C9.85312 8.49555 9.86264 8.56172 9.88755 8.61019C9.91172 8.65679 9.95347 8.68941 10.0106 8.70991C10.0782 8.73008 10.1479 8.7373 10.2172 8.73134C10.374 8.71771 10.5292 8.68272 10.6801 8.62696C10.7314 8.60925 10.7717 8.59248 10.8068 8.57757C10.861 8.49276 10.9863 8.33246 11.2082 8.05379C11.7971 7.31473 12.022 6.91025 11.7898 7.0193C11.7041 7.05844 11.7429 6.95965 11.8902 6.76207C12.2007 6.37716 12.3787 5.79561 12.7508 3.97172C13.0453 2.53181 13.0453 2.51131 13.2621 2.51131C13.3639 2.51131 13.6518 2.53367 13.6518 2.53367V0.736816H12.9911H12.3326ZM15.1446 3.68653C15.0977 3.68653 15.02 3.776 14.9739 3.87479C14.8889 4.05187 14.9893 4.15998 16.2682 5.17584C17.0278 5.78815 17.6401 6.31006 17.6248 6.35013C17.6094 6.37903 16.989 6.89255 16.2455 7.48435C14.8963 8.54868 14.8889 8.55893 15.0127 8.77608C15.168 9.03237 15.0127 9.12091 16.7641 7.7304L18.0357 6.69497V5.91583L16.6169 4.80118C15.8499 4.1898 15.1834 3.69679 15.1446 3.68653ZM3.3626 3.79558C3.32377 3.79558 2.65722 4.29885 1.89031 4.89997L0.456108 6.01462V6.79376L1.88225 7.92798C2.67333 8.54868 3.33989 9.0622 3.37065 9.0622C3.40142 9.0622 3.46368 8.97273 3.52594 8.86462C3.61897 8.67729 3.54059 8.59807 2.23091 7.54307C0.983495 6.54678 0.851648 6.40885 0.97617 6.30074C1.05381 6.23177 1.64273 5.76765 2.27852 5.26531C3.7281 4.13109 3.65046 4.20938 3.534 3.97265C3.48785 3.87479 3.40948 3.78626 3.36333 3.79558H3.3626ZM9.72347 3.81701C9.50959 3.81515 9.04959 4.22988 7.67252 5.66047C7.61319 5.84034 7.60806 5.96429 7.63516 6.04444C7.65274 6.09943 7.68497 6.13764 7.72965 6.1656C7.7736 6.19356 7.83074 6.21034 7.89373 6.21686C8.01898 6.23084 8.16695 6.20568 8.28634 6.17585L8.36691 6.15255C8.39449 6.1055 8.43071 6.06774 8.47239 6.04258C8.55736 5.98293 8.91408 5.56913 9.2708 5.12551C9.89853 4.31655 10.0458 3.95122 9.79013 3.83285C9.76915 3.82224 9.74604 3.81686 9.72347 3.81701ZM11.332 4.379C11.1438 4.38552 10.8046 4.66325 10.2238 5.25319C9.93223 5.55422 9.74764 5.71639 9.64876 5.74994L9.26494 6.13578C9.12064 6.47129 9.0994 6.67912 9.13748 6.79376C9.14702 6.82203 9.16086 6.84763 9.17821 6.86906C9.19556 6.8905 9.21607 6.90735 9.23857 6.91864C9.29453 6.94676 9.3542 6.96099 9.41436 6.96058C9.55813 6.95863 9.70104 6.93198 9.8392 6.88136C9.91121 6.85678 9.98233 6.82817 10.0524 6.79562L10.0736 6.78444L10.1124 6.75834C10.1857 6.63812 10.3541 6.41165 10.5651 6.15069C11.2317 5.33241 11.5723 4.75086 11.5027 4.5337C11.4712 4.42839 11.417 4.37527 11.332 4.379ZM9.55646 5.38553C9.50226 5.39299 9.38067 5.51228 9.16166 5.75646C8.84522 6.11248 8.50023 6.31752 8.38083 6.22618C8.35308 6.23416 8.32525 6.24161 8.29733 6.24855C8.17574 6.2793 8.02411 6.30447 7.8886 6.29049C7.82475 6.28557 7.76217 6.26566 7.70402 6.23177C7.64916 6.19986 7.60539 6.1435 7.58096 6.07334C7.55386 5.98946 7.55386 5.88508 7.58462 5.7518L7.10851 6.24948L6.03103 7.3837V9.2225L9.56159 5.68377C9.56091 5.64502 9.56486 5.60637 9.57331 5.56913C9.60041 5.44425 9.59895 5.38088 9.55646 5.38647V5.38553ZM11.0756 5.98107C11.0222 5.98107 10.9328 6.07706 10.79 6.26998C10.5959 6.53373 10.2904 6.7891 10.1285 6.84129L10.1036 6.85806C10.0771 6.87203 10.0502 6.88508 10.0231 6.89721C9.97911 6.91585 9.92197 6.93821 9.85605 6.96058C9.7242 7.00625 9.56013 7.04819 9.41363 7.04353C9.34457 7.04342 9.27617 7.02633 9.2122 6.9932C9.1519 6.96158 9.10359 6.90145 9.07742 6.82544C9.03494 6.6959 9.05178 6.51416 9.14481 6.256L6.0303 9.37721V10.5002H7.39857L10.3007 7.59992C10.3761 7.49367 10.4896 7.34829 10.6427 7.16655C11.0529 6.68285 11.1459 6.51603 11.1459 6.26905C11.1459 6.07706 11.1291 5.98014 11.0756 5.98014V5.98107ZM11.7664 7.79843L11.5181 8.11344C11.3789 8.2812 11.1306 8.4881 10.9606 8.57664L10.9269 8.59528L10.9247 8.59994L10.9174 8.60925C10.9108 8.61578 10.9079 8.61671 10.9028 8.61951C10.8349 8.65218 10.766 8.68109 10.6962 8.70618C10.541 8.76366 10.3814 8.7996 10.2201 8.81336C10.1438 8.81958 10.0673 8.8111 9.99302 8.7882C9.92858 8.77014 9.87168 8.72233 9.83334 8.65399C9.79818 8.58502 9.78793 8.49276 9.8077 8.37906C9.82344 8.29811 9.8468 8.21987 9.87729 8.14606L7.53555 10.5002H10.6501L11.0222 9.95783C11.5334 9.1992 11.7664 8.65679 11.7664 8.19266V7.79843Z" fill="#CCD7F7"/>
</svg>
