<svg width="15" height="15" viewBox="0 0 15 15" fill="none" xmlns="http://www.w3.org/2000/svg">
<path d="M4.63558 6.53252C5.04392 4.89919 6.06475 4.08252 7.69808 4.08252C10.1481 4.08252 10.4543 5.92002 11.6793 6.22627C12.496 6.43044 13.2106 6.12419 13.8231 5.30752C13.4147 6.94085 12.3939 7.75752 10.7606 7.75752C8.31058 7.75752 8.00433 5.92002 6.77933 5.61377C5.96267 5.4096 5.24808 5.71585 4.63558 6.53252ZM1.57308 10.2075C1.98142 8.57419 3.00225 7.75752 4.63558 7.75752C7.08558 7.75752 7.39183 9.59502 8.61683 9.90127C9.4335 10.1054 10.1481 9.79919 10.7606 8.98252C10.3522 10.6159 9.33142 11.4325 7.69808 11.4325C5.24808 11.4325 4.94183 9.59502 3.71683 9.28877C2.90017 9.0846 2.18558 9.39085 1.57308 10.2075Z" fill="#44A8B3"/>
</svg>
